<svg width="320" height="130" viewBox="0 0 320 130" fill="none" xmlns="http://www.w3.org/2000/svg">
  <defs>
    <!-- Magenta to Purple gradient -->
    <linearGradient id="ribbon-right-magenta" x1="100%" y1="0%" x2="0%" y2="100%">
      <stop offset="0%" stop-color="#ec4899" stop-opacity="0.88"/>
      <stop offset="50%" stop-color="#a855f7" stop-opacity="0.82"/>
      <stop offset="85%" stop-color="#6366f1" stop-opacity="0.4"/>
      <stop offset="100%" stop-color="#6366f1" stop-opacity="0"/>
    </linearGradient>

    <!-- Indigo to Cyan gradient -->
    <linearGradient id="ribbon-right-cyan" x1="100%" y1="10%" x2="0%" y2="100%">
      <stop offset="0%" stop-color="#00f2fe" stop-opacity="0.92"/>
      <stop offset="45%" stop-color="#0072ff" stop-opacity="0.85"/>
      <stop offset="85%" stop-color="#6366f1" stop-opacity="0.4"/>
      <stop offset="100%" stop-color="#6366f1" stop-opacity="0"/>
    </linearGradient>

    <!-- Deep Cosmic base -->
    <linearGradient id="ribbon-right-cosmic" x1="100%" y1="0%" x2="0%" y2="100%">
      <stop offset="0%" stop-color="#2d1254" stop-opacity="0.8"/>
      <stop offset="70%" stop-color="#1b0b36" stop-opacity="0.45"/>
      <stop offset="100%" stop-color="#0e061e" stop-opacity="0"/>
    </linearGradient>

    <!-- Specular Gloss -->
    <linearGradient id="ribbon-right-gloss" x1="100%" y1="0%" x2="10%" y2="90%">
      <stop offset="0%" stop-color="#ffffff" stop-opacity="0.75"/>
      <stop offset="40%" stop-color="#ffffff" stop-opacity="0.2"/>
      <stop offset="80%" stop-color="#ffffff" stop-opacity="0"/>
    </linearGradient>
  </defs>

  <path d="M320 0 C270 12 210 40 175 80 C145 110 110 125 50 130 L320 130 Z" fill="url(#ribbon-right-cosmic)"/>
  <path d="M320 16 C260 20 195 50 160 90 C135 115 100 126 50 130 L125 130 C165 120 200 102 224 78 C255 48 290 26 320 24 Z" fill="url(#ribbon-right-magenta)"/>
  <path d="M320 44 C268 46 215 72 185 102 C168 120 142 128 105 130 L170 130 C200 124 224 110 242 88 C266 62 295 48 320 46 Z" fill="url(#ribbon-right-cyan)"/>
  <path d="M320 16 C260 20 195 50 160 90 C135 115 100 126 50 130" stroke="url(#ribbon-right-gloss)" stroke-width="2" stroke-linecap="round" fill="none"/>
  <path d="M320 44 C268 46 215 72 185 102 C168 120 142 128 105 130" stroke="url(#ribbon-right-gloss)" stroke-width="1.8" stroke-linecap="round" fill="none" opacity="0.7"/>
</svg>